<svg xmlns="http://www.w3.org/2000/svg" xmlns:xlink="http://www.w3.org/1999/xlink" viewBox="0 0 310.45 100.06"><defs><style>.cls-1{fill:none;}.cls-2{fill:#35bf42;}.cls-3{clip-path:url(#clip-path);}.cls-4{fill:#fff;}</style><clipPath id="clip-path" transform="translate(4.52)"><path class="cls-1" d="M104.93,50A47.72,47.72,0,0,1,149.16,2.44H49.57v0a47.56,47.56,0,0,0,0,95.11v0h99.59A47.73,47.73,0,0,1,104.93,50ZM50,73.81A23.78,23.78,0,1,1,73.77,50,23.78,23.78,0,0,1,50,73.81Z"/></clipPath></defs><g id="Capa_2" data-name="Capa 2"><g id="Layer_1" data-name="Layer 1"><path class="cls-2" d="M149.34,95.19a45.29,45.29,0,0,1,0-90.33A2.43,2.43,0,0,0,149.16,0H49.57a2.5,2.5,0,0,0-.47.05A50,50,0,0,0,0,50a50,50,0,0,0,49.1,50,2.42,2.42,0,0,0,.47,0h99.59a2.44,2.44,0,0,0,.18-4.87ZM28.65,50A21.35,21.35,0,1,1,50,71.37,21.37,21.37,0,0,1,28.65,50Z" transform="translate(4.52)"/><g class="cls-3"><rect class="cls-4" y="46.83" width="150.13" height="6.4"/><rect class="cls-4" x="0.79" y="31.79" width="150.13" height="3.74"/><rect class="cls-4" x="0.79" y="14.63" width="150.13" height="2.16"/><rect class="cls-4" x="0.79" y="6.13" width="150.13" height="1.08"/><rect class="cls-4" x="0.79" y="64.6" width="150.13" height="3.74"/><rect class="cls-4" x="0.79" y="83.34" width="150.13" height="2.16"/><rect class="cls-4" x="0.79" y="92.92" width="150.13" height="1.08"/></g><path class="cls-2" d="M277.05,78.48a19.08,19.08,0,0,1-6.79-3.34,25.9,25.9,0,0,1-8.16-10.25,34,34,0,0,1-2.81-14.1,37.73,37.73,0,0,1,2-12.7,26.12,26.12,0,0,1,5.92-9.63,21.54,21.54,0,0,1,8.2-5.33,37.15,37.15,0,0,1,12-1.59h18.48V79.47H287.14A41.14,41.14,0,0,1,277.05,78.48Zm18-9V31.41H288q-8.36,0-13,5t-4.65,14q0,9.83,4.25,14.44t13.25,4.62Z" transform="translate(4.52)"/><path class="cls-2" d="M196,50.39a33,33,0,0,1,1.21-9,29.62,29.62,0,0,1,3.61-7.93,28.79,28.79,0,0,1,10.28-9.65,27.58,27.58,0,0,1,13.51-3.4,26.36,26.36,0,0,1,10.61,2.22A28.46,28.46,0,0,1,244.32,29a30.22,30.22,0,0,1,8.46,21.13,33,33,0,0,1-2,11.66,28.71,28.71,0,0,1-6,9.67,27.62,27.62,0,0,1-9.28,6.78,26.79,26.79,0,0,1-11.06,2.37,27.69,27.69,0,0,1-11.38-2.31,26.78,26.78,0,0,1-9.22-6.84A30.08,30.08,0,0,1,198,61.83,32.49,32.49,0,0,1,196,50.39Zm11.35-.4a20.26,20.26,0,0,0,1.17,7A18.89,18.89,0,0,0,212,62.84a18.35,18.35,0,0,0,5.77,4.48,15.05,15.05,0,0,0,6.68,1.57,15.77,15.77,0,0,0,12.16-5.41A19.31,19.31,0,0,0,241.51,50a17.71,17.71,0,0,0-4.95-12.63,15.79,15.79,0,0,0-11.89-5.24,16.48,16.48,0,0,0-12.3,5.22A17.52,17.52,0,0,0,207.33,50Z" transform="translate(4.52)"/><path class="cls-2" d="M191.39,38.73h-13.2a15.54,15.54,0,0,0-5.6-5A15.8,15.8,0,0,0,165.21,32a15.56,15.56,0,0,0-6.34,1.32,15.8,15.8,0,0,0-5.31,3.82,18.8,18.8,0,0,0-3.81,6.07,19.13,19.13,0,0,0-1.35,7.06,19.19,19.19,0,0,0,4.88,13.35,15.49,15.49,0,0,0,11.93,5.39,16.41,16.41,0,0,0,7.31-1.59,13.15,13.15,0,0,0,5.25-4.62H191q-3.87,8.88-10.32,13.33a28.25,28.25,0,0,1-26.88,2,28.2,28.2,0,0,1-9.43-7.44A28.46,28.46,0,0,1,139,61.35a33.68,33.68,0,0,1-1.82-11.2,30.23,30.23,0,0,1,2.2-11.48,31.2,31.2,0,0,1,6.45-9.89,27.71,27.71,0,0,1,8.93-6.26,28.17,28.17,0,0,1,26.07,2.4Q187.3,29.46,191.39,38.73Z" transform="translate(4.52)"/></g></g></svg>